<svg width="72" height="83" xmlns="http://www.w3.org/2000/svg"><g stroke="#4A4A4A" stroke-width="2" fill="none" fill-rule="evenodd"><path d="M47.68 14.084c.051-.44.079-.886.079-1.339C47.759 6.26 42.494 1 35.999 1c-6.493 0-11.758 5.259-11.758 11.745 0 .453.028.9.078 1.34C10.735 18.887 1 31.825 1 47.04 1 66.35 16.67 82 36 82s35-15.651 35-34.959c0-15.215-9.735-28.153-23.32-32.957z"/><path d="M32.704 11.647a3.54 3.54 0 013.536-3.544 3.54 3.54 0 013.536 3.544 3.542 3.542 0 01-2.805 3.467l-.05.01a4.512 4.512 0 01-.294.045 3.47 3.47 0 01-.205.012c-.057.003-.114.009-.172.009a3.59 3.59 0 01-.505-.038 3.54 3.54 0 01-2.624-1.889 1.06 1.06 0 00-.03-.012 3.532 3.532 0 01-.387-1.604"/></g></svg>