<svg width="92" height="68" xmlns="http://www.w3.org/2000/svg"><path d="M45.381 6.423a4.025 4.025 0 014.02 4.029 4.024 4.024 0 01-4.02 4.03 4.024 4.024 0 01-4.02-4.03 4.025 4.025 0 014.02-4.03m34.648 31.144c5.852-1.956 10.072-7.486 10.072-14.007 0-8.155-6.598-14.766-14.736-14.766-5.042 0-9.49 2.538-12.145 6.407h-9.692a9.414 9.414 0 001.285-4.748C54.813 5.232 50.59 1 45.381 1c-5.21 0-9.433 4.232-9.433 9.452 0 1.733.473 3.352 1.286 4.748h-9.352c-2.657-3.869-7.105-6.407-12.146-6.407C7.598 8.793 1 15.403 1 23.559c0 6.521 4.22 12.05 10.072 14.007C5.22 39.52 1 45.052 1 51.572 1 59.728 7.598 66.34 15.736 66.34c5.332 0 10.001-2.838 12.589-7.088h34.451c2.587 4.25 7.257 7.088 12.589 7.088 8.138 0 14.736-6.611 14.736-14.767 0-6.52-4.22-12.05-10.072-14.006" stroke="#4A4A4A" stroke-width="2" fill="none"/></svg>