<svg width="81" height="77" xmlns="http://www.w3.org/2000/svg"><g stroke="#4A4A4A" stroke-width="2" fill="none" fill-rule="evenodd"><path d="M14 51.349l-1.08 18.074s0 9.252 10.801 5.81c10.801-3.444 15.986-5.595 15.986-5.595l16.634 5.38s11.017 3.011 11.017-5.595V51.35l10.801-14.846s6.265-8.392-4.32-11.405c-10.586-3.012-15.77-4.948-15.77-4.948s-1.728-.86-4.105-4.52C51.588 11.974 46.46 5.304 46.46 5.304S43.965 1 40.972 1c-2.993 0-4.937 1.29-8.178 5.81a8781.645 8781.645 0 00-9.073 12.694c-6.433 2.345-13.903 4.039-19.927 7.223-1.124.594-2.127 1.516-2.55 2.711-1.093 3.094 1.748 6.556 3.251 9.062C6.007 41.02 14 51.349 14 51.349z"/><path d="M36.704 11.647a3.54 3.54 0 013.536-3.544 3.54 3.54 0 013.536 3.544 3.542 3.542 0 01-2.805 3.467l-.05.01a4.512 4.512 0 01-.294.045 3.47 3.47 0 01-.205.012c-.057.003-.114.009-.172.009a3.59 3.59 0 01-.505-.038 3.54 3.54 0 01-2.624-1.889 1.06 1.06 0 00-.03-.012 3.532 3.532 0 01-.387-1.604"/></g></svg>