<svg width="72" height="77" xmlns="http://www.w3.org/2000/svg"><path d="M32.704 11.647a3.54 3.54 0 013.536-3.544 3.54 3.54 0 013.536 3.544 3.542 3.542 0 01-2.805 3.467l-.05.01a3.921 3.921 0 01-.294.044c-.068.007-.136.01-.205.013-.057.003-.114.009-.172.009a3.59 3.59 0 01-.505-.038 3.54 3.54 0 01-2.624-1.889l-.03-.012a3.532 3.532 0 01-.387-1.604m25.943.726c-3.96-1.234-8.385-1.175-12.756-.617l.002-.11c0-5.342-4.321-9.672-9.653-9.672-5.331 0-9.653 4.33-9.653 9.673l.001.042c-.008-.878-9.879-.837-10.894-.69-5.705.828-10.35 5.011-12.392 10.35-3.264 8.533-.395 18.604 4.142 26.115 6.11 10.117 14.517 21.394 29.207 27.885 14.316-6.49 22.778-17.59 28.463-27.886 4.685-8.487 8.35-20.672 1.89-29.226-2.308-3.057-5.183-4.876-8.357-5.864" stroke="#4A4A4A" stroke-width="2" fill="none"/></svg>