<svg width="76" height="79" xmlns="http://www.w3.org/2000/svg"><g fill="none" fill-rule="evenodd"><path d="M8.575 47.595s-6.02 22.132 14.715 28.09c10.27 2.95 21.48 2.89 31.8.2 3.54-.923 7.112-2.23 9.74-4.748 6.118-5.862 5.489-15.98 3.94-23.543-.447-2.188 3.747-6.43 4.62-8.372 1.96-4.356 1.905-9.466-.063-13.926-2.654-6.012-8.715-8.849-14.923-6.431 0 0 3.352-5.459-1.762-9.9C51.527 4.522 45.947 7.28 45.947 7.28S45.327 1 38.352 1c-6.974 0-7.44 5.36-7.44 5.36s-5.27-1.072-9.144 1.992c-3.875 3.063-4.03 7.658-3.565 9.342 0 0-6.897-2.603-13.795 4.595-6.897 7.198-2.205 20.134 4.167 25.306z" stroke="#4A4A4A" stroke-width="2"/><path d="M21.015 52.145c3.135-2.959 7.278-3.716 9.558-7.906 2.865-5.262 7.22-4.698 7.22-4.698s5.764 0 7.291 4.323c.884 2.5 3.02 4.354 5.192 5.787 2.979 1.965 5.952 2.712 7.136 6.489.766 2.441.43 5.937-1.428 7.876-3.146 3.283-9.622 3.241-13.764 3.34-15.487.372-18.083.009-18.137 0-7.292-1.06-7.944-10.142-3.49-14.792.138-.145.279-.285.422-.42m2.003-18.387c2.011 4.769.966 9.768-2.335 11.167-3.3 1.4-7.607-1.332-9.618-6.1-2.012-4.768-.967-9.768 2.333-11.167 3.301-1.4 7.607 1.332 9.62 6.1m11.646-10.539c1.083 4.358-.577 8.478-3.709 9.204-3.13.725-6.546-2.22-7.629-6.577-1.082-4.357.578-8.478 3.71-9.204 3.13-.725 6.546 2.22 7.628 6.577" fill="#D6DBC4"/><path d="M34.704 10.647a3.54 3.54 0 013.536-3.544 3.54 3.54 0 013.536 3.544 3.542 3.542 0 01-2.805 3.467l-.05.01a4.512 4.512 0 01-.294.045 3.47 3.47 0 01-.205.012c-.057.003-.114.009-.172.009a3.59 3.59 0 01-.505-.038 3.54 3.54 0 01-2.624-1.889 1.06 1.06 0 00-.03-.012 3.532 3.532 0 01-.387-1.604" stroke="#4A4A4A" stroke-width="2"/><path d="M52.679 35.08c-2.3 4.769-1.105 9.769 2.667 11.168 3.772 1.399 8.694-1.332 10.993-6.1 2.3-4.768 1.105-9.768-2.667-11.168-3.773-1.399-8.695 1.333-10.993 6.1M39.697 24.095c-1.263 4.358.674 8.479 4.327 9.204 3.652.726 7.638-2.219 8.9-6.577 1.264-4.357-.673-8.478-4.326-9.203-3.653-.726-7.638 2.219-8.901 6.576" fill="#D6DBC4"/></g></svg>